<svg width="202" height="60" viewBox="0 0 202 60" fill="none" xmlns="http://www.w3.org/2000/svg">
<path d="M197.263 1H5.23183C3.41943 1 1.9502 2.46751 1.9502 4.27778V55.0833C1.9502 56.8936 3.41943 58.3611 5.23183 58.3611H197.263C199.076 58.3611 200.545 56.8936 200.545 55.0833V4.27778C200.545 2.46751 199.076 1 197.263 1Z" stroke="black" stroke-width="2"/>
<path d="M48.5533 28.3017C48.5153 23.7643 52.2743 21.5526 52.4493 21.4538C50.3187 18.3528 47.0163 17.9272 45.8521 17.8968C43.0747 17.608 40.3886 19.5537 38.9733 19.5537C37.5352 19.5537 35.3589 17.9272 33.0077 17.9728C29.9868 18.0184 27.1637 19.7665 25.6191 22.4722C22.4232 27.9977 24.8049 36.1148 27.8714 40.5838C29.4008 42.7727 31.1891 45.2124 33.5327 45.1287C35.8231 45.0375 36.6829 43.6695 39.4451 43.6695C42.1844 43.6695 42.991 45.1287 45.3803 45.0756C47.8381 45.0375 49.3904 42.879 50.8666 40.675C52.6395 38.1669 53.3472 35.6968 53.3777 35.5752C53.3168 35.5371 48.599 33.7359 48.5533 28.3017ZM44.0411 14.9555C45.2737 13.4126 46.1184 11.3226 45.8825 9.19446C44.102 9.27042 41.8648 10.4257 40.5864 11.9306C39.4527 13.2606 38.433 15.4343 38.6994 17.4788C40.693 17.6232 42.7551 16.4679 44.0411 14.9555Z" fill="black"/>
<path d="M81.7446 44.8021H78.5411L76.7834 39.2994H70.6883L69.0143 44.8021H65.8945L71.9363 26.0597H75.6648L81.7446 44.8021ZM76.2583 36.9889L74.668 32.0944C74.5006 31.5927 74.181 30.4147 73.7244 28.5602H73.6712C73.4886 29.3583 73.1842 30.5363 72.7809 32.0944L71.221 36.9889H76.2583ZM97.2527 37.8782C97.2527 40.1735 96.6283 41.99 95.3805 43.3277C94.2615 44.5133 92.8692 45.1061 91.2104 45.1061C89.4145 45.1061 88.1289 44.4677 87.3454 43.1908V50.2819H84.3394V35.7273C84.3394 34.2833 84.3017 32.8012 84.2254 31.2887H86.8729L87.041 33.432H87.0935C88.0985 31.8208 89.6204 31.0075 91.6591 31.0075C93.2573 31.0075 94.5888 31.6384 95.6545 32.9C96.7194 34.1617 97.2527 35.8261 97.2527 37.8782ZM94.1934 37.9922C94.1934 36.6774 93.8964 35.5905 93.3032 34.7393C92.6559 33.85 91.7814 33.4092 90.6853 33.4092C89.9478 33.4092 89.2701 33.66 88.6687 34.1464C88.0682 34.6405 87.6719 35.2865 87.4898 36.0769C87.4061 36.3734 87.3602 36.6849 87.3528 36.9889V39.2462C87.3528 40.2267 87.6572 41.0551 88.2585 41.7392C88.8591 42.4156 89.6434 42.7576 90.609 42.7576C91.7428 42.7576 92.6256 42.3168 93.2573 41.4504C93.8734 40.5687 94.1934 39.421 94.1934 37.9922ZM112.821 37.8782C112.821 40.1735 112.197 41.99 110.949 43.3277C109.83 44.5133 108.438 45.1061 106.779 45.1061C104.983 45.1061 103.697 44.4677 102.913 43.1908V50.2819H99.9075V35.7273C99.9075 34.2833 99.8698 32.8012 99.7935 31.2887H102.442L102.609 33.432H102.662C103.667 31.8208 105.188 31.0075 107.228 31.0075C108.826 31.0075 110.158 31.6384 111.223 32.9C112.281 34.1617 112.821 35.8261 112.821 37.8782ZM109.754 37.9922C109.754 36.6774 109.458 35.5905 108.864 34.7393C108.217 33.85 107.342 33.4092 106.247 33.4092C105.508 33.4092 104.831 33.66 104.222 34.1464C103.621 34.6405 103.225 35.2865 103.043 36.0769C102.951 36.4493 102.899 36.7533 102.899 36.9889V39.2462C102.899 40.2267 103.203 41.0551 103.804 41.7392C104.405 42.4156 105.188 42.7576 106.163 42.7576C107.296 42.7576 108.179 42.3168 108.811 41.4504C109.442 40.5687 109.754 39.421 109.754 37.9922ZM130.223 39.5503C130.223 41.1464 129.668 42.446 128.557 43.4416C127.34 44.5361 125.627 45.0833 123.443 45.0833C121.427 45.0833 119.807 44.6957 118.581 43.9128L119.273 41.4124C120.59 42.1952 122.043 42.5828 123.618 42.5828C124.752 42.5828 125.635 42.3244 126.266 41.8151C126.898 41.3059 127.217 40.6219 127.217 39.7707C127.217 39.0107 126.951 38.3722 126.434 37.8478C125.916 37.331 125.056 36.8445 123.847 36.4038C120.56 35.1801 118.916 33.3864 118.916 31.038C118.916 29.5026 119.494 28.241 120.658 27.2606C121.815 26.2801 123.352 25.7861 125.27 25.7861C126.974 25.7861 128.397 26.0825 129.531 26.6753L128.778 29.1227C127.712 28.545 126.517 28.2638 125.17 28.2638C124.113 28.2638 123.276 28.5222 122.682 29.039C122.18 29.5026 121.929 30.0651 121.929 30.7339C121.929 31.4711 122.219 32.0868 122.797 32.5656C123.299 33.0064 124.204 33.4928 125.521 34.0097C127.134 34.6633 128.321 35.4157 129.082 36.2898C129.843 37.1638 130.223 38.2506 130.223 39.5503ZM140.191 33.546H136.873V40.1051C136.873 41.7772 137.459 42.6056 138.632 42.6056C139.171 42.6056 139.613 42.56 139.97 42.4688L140.054 44.7489C139.461 44.9693 138.685 45.0833 137.718 45.0833C136.531 45.0833 135.603 44.7185 134.933 43.9965C134.264 43.2744 133.929 42.0583 133.929 40.3559V33.546H131.958V31.2963H133.929V28.8187L136.882 27.9294V31.2963H140.199L140.191 33.546ZM155.113 37.939C155.113 40.0139 154.52 41.724 153.332 43.054C152.092 44.4296 150.441 45.1137 148.379 45.1137C146.393 45.1137 144.81 44.4525 143.63 43.1452C142.451 41.8304 141.866 40.1659 141.866 38.167C141.866 36.0693 142.474 34.3592 143.692 33.0216C144.909 31.6839 146.545 31.0227 148.607 31.0227C150.593 31.0227 152.191 31.6839 153.393 32.9988C154.534 34.268 155.113 35.9173 155.113 37.939ZM151.994 38.0074C151.994 36.7686 151.727 35.7045 151.186 34.8229C150.555 33.7512 149.657 33.2116 148.486 33.2116C147.283 33.2116 146.355 33.7512 145.731 34.8229C145.191 35.7121 144.924 36.7914 144.924 38.0682C144.924 39.307 145.191 40.3711 145.731 41.2604C146.378 42.3319 147.291 42.8716 148.463 42.8716C149.612 42.8716 150.509 42.3244 151.164 41.2376C151.72 40.3179 151.994 39.2462 151.994 38.0074ZM164.891 33.9336C164.579 33.8804 164.259 33.85 163.94 33.85C162.882 33.85 162.068 34.2453 161.49 35.0433C160.988 35.7501 160.737 36.6393 160.737 37.711V44.8021H157.731V35.5449C157.731 34.1237 157.708 32.7099 157.647 31.2887H160.265L160.371 33.8728H160.454C160.774 32.9836 161.269 32.2692 161.962 31.7296C162.585 31.2583 163.354 31.0075 164.137 31.0075C164.419 31.0075 164.662 31.0303 164.891 31.0607V33.9336ZM178.337 37.407C178.344 37.863 178.306 38.319 178.23 38.7674H169.206C169.236 40.1051 169.677 41.1235 170.514 41.8304C171.275 42.4612 172.257 42.7728 173.467 42.7728C174.806 42.7728 176.023 42.56 177.119 42.1344L177.591 44.2168C176.312 44.7717 174.798 45.0529 173.056 45.0529C170.956 45.0529 169.312 44.4373 168.11 43.206C166.915 41.9748 166.314 40.3179 166.314 38.243C166.314 36.2061 166.869 34.5112 167.988 33.1584C169.152 31.7143 170.735 30.9923 172.721 30.9923C174.669 30.9923 176.145 31.7143 177.15 33.1584C177.933 34.3061 178.337 35.7197 178.337 37.407ZM175.468 36.6317C175.491 35.7425 175.293 34.9749 174.882 34.3212C174.364 33.4852 173.558 33.0672 172.485 33.0672C171.504 33.0672 170.705 33.4776 170.088 34.2908C169.586 34.9369 169.289 35.7197 169.198 36.6242L175.468 36.6317Z" fill="black"/>
<path d="M69.8212 19.4397C68.9842 19.4397 68.2614 19.4017 67.6602 19.3333V10.2661C68.5048 10.1369 69.3571 10.0685 70.2093 10.0761C73.6563 10.0761 75.2466 11.771 75.2466 14.5299C75.239 17.7144 73.3672 19.4397 69.8212 19.4397ZM70.331 11.239C69.8669 11.239 69.4712 11.2694 69.144 11.3377V18.2237C69.319 18.2541 69.6615 18.2616 70.1408 18.2616C72.4007 18.2616 73.6867 16.9772 73.6867 14.5755C73.6791 12.4246 72.5149 11.239 70.331 11.239ZM80.1926 19.5081C78.2523 19.5081 76.9891 18.0564 76.9891 16.088C76.9891 14.0358 78.2751 12.5766 80.2992 12.5766C82.2167 12.5766 83.5029 13.9599 83.5029 15.9815C83.5029 18.0564 82.1787 19.5081 80.1926 19.5081ZM80.2459 13.6559C79.1806 13.6559 78.4958 14.6515 78.4958 16.0499C78.4958 17.418 79.1958 18.4136 80.2307 18.4136C81.2732 18.4136 81.9656 17.3496 81.9656 16.0195C81.9732 14.6667 81.2884 13.6559 80.2459 13.6559ZM94.5817 12.7134L92.5044 19.3561H91.1499L90.2901 16.4756C90.0768 15.7687 89.8947 15.0543 89.7577 14.3323H89.7273C89.6207 15.0543 89.4148 15.784 89.1941 16.4756L88.2809 19.3561H86.9117L84.9558 12.7134H86.4777L87.2308 15.8675C87.4064 16.6199 87.5582 17.3268 87.6804 18.0033H87.7108C87.8174 17.4408 87.9996 16.7492 88.2588 15.8828L89.2023 12.7134H90.4042L91.3099 15.8144C91.5306 16.5668 91.7053 17.304 91.8423 18.0033H91.8801C91.9793 17.3192 92.1237 16.5972 92.3297 15.8144L93.1361 12.7134H94.5817ZM102.244 19.3561H100.768V15.5407C100.768 14.3627 100.319 13.7775 99.4287 13.7775C98.5541 13.7775 97.9527 14.5299 97.9527 15.4039V19.3561H96.4768V14.6135C96.4768 14.0283 96.4612 13.3975 96.4235 12.7134H97.7247L97.7928 13.7394H97.8305C98.2268 13.0327 99.0332 12.5766 99.939 12.5766C101.331 12.5766 102.252 13.6407 102.252 15.3811L102.244 19.3561ZM106.315 19.3561H104.839V9.66565H106.315V19.3561ZM111.71 19.5081C109.77 19.5081 108.506 18.0564 108.506 16.088C108.506 14.0358 109.793 12.5766 111.817 12.5766C113.734 12.5766 115.021 13.9599 115.021 15.9815C115.021 18.0564 113.689 19.5081 111.71 19.5081ZM111.764 13.6559C110.698 13.6559 110.014 14.6515 110.014 16.0499C110.014 17.418 110.713 18.4136 111.748 18.4136C112.791 18.4136 113.483 17.3496 113.483 16.0195C113.483 14.6667 112.806 13.6559 111.764 13.6559ZM120.849 19.3561L120.742 18.5884H120.704C120.256 19.2041 119.593 19.5005 118.757 19.5005C117.561 19.5005 116.717 18.6645 116.717 17.5472C116.717 15.9056 118.14 15.0619 120.605 15.0619V14.9403C120.605 14.0662 120.142 13.6255 119.228 13.6255C118.574 13.6255 117.995 13.7927 117.493 14.1195L117.196 13.1466C117.813 12.7666 118.581 12.569 119.479 12.569C121.214 12.569 122.097 13.4811 122.097 15.3127V17.76C122.097 18.4289 122.127 18.9532 122.196 19.3485L120.849 19.3561ZM120.644 16.0499C118.999 16.0499 118.178 16.4452 118.178 17.3876C118.178 18.0868 118.604 18.4289 119.19 18.4289C119.944 18.4289 120.644 17.8588 120.644 17.076V16.0499ZM129.257 19.3561L129.189 18.292H129.15C128.725 19.0977 128.009 19.5081 127.012 19.5081C125.407 19.5081 124.22 18.1021 124.22 16.1184C124.22 14.0434 125.453 12.5766 127.134 12.5766C128.025 12.5766 128.656 12.873 129.006 13.4811H129.036V9.66565H130.512V17.5624C130.512 18.2008 130.528 18.8088 130.566 19.3485H129.257V19.3561ZM129.044 15.4495C129.044 14.5223 128.428 13.7243 127.484 13.7243C126.388 13.7243 125.719 14.6971 125.719 16.0576C125.719 17.3952 126.411 18.3149 127.454 18.3149C128.382 18.3149 129.044 17.5092 129.044 16.5516V15.4495ZM139.903 19.5081C137.962 19.5081 136.699 18.0564 136.699 16.088C136.699 14.0358 137.985 12.5766 140.009 12.5766C141.927 12.5766 143.212 13.9599 143.212 15.9815C143.212 18.0564 141.889 19.5081 139.903 19.5081ZM139.956 13.6559C138.89 13.6559 138.205 14.6515 138.205 16.0499C138.205 17.418 138.906 18.4136 139.94 18.4136C140.983 18.4136 141.676 17.3496 141.676 16.0195C141.683 14.6667 140.998 13.6559 139.956 13.6559ZM151.164 19.3561H149.688V15.5407C149.688 14.3627 149.239 13.7775 148.349 13.7775C147.473 13.7775 146.873 14.5299 146.873 15.4039V19.3561H145.396V14.6135C145.396 14.0283 145.381 13.3975 145.343 12.7134H146.644L146.713 13.7394H146.751C147.147 13.0327 147.953 12.5766 148.858 12.5766C150.251 12.5766 151.172 13.6407 151.172 15.3811V19.3561H151.164ZM161.102 13.823H159.474V17.0456C159.474 17.8664 159.755 18.2769 160.333 18.2769C160.592 18.2769 160.812 18.2465 160.988 18.2084L161.026 19.3257C160.737 19.4321 160.356 19.4929 159.877 19.4929C158.712 19.4929 158.012 18.8545 158.012 17.1672V13.8155H157.039V12.7058H158.012V11.4897L159.466 11.049V12.7058H161.095L161.102 13.823ZM168.932 19.3561H167.455V15.5711C167.455 14.3855 167.006 13.7851 166.116 13.7851C165.348 13.7851 164.64 14.3019 164.64 15.3583V19.3637H163.164V9.66565H164.64V13.6559H164.671C165.135 12.9338 165.812 12.5766 166.672 12.5766C168.08 12.5766 168.939 13.671 168.939 15.4039L168.932 19.3561ZM176.944 16.392H172.508C172.539 17.6461 173.368 18.3604 174.601 18.3604C175.255 18.3604 175.864 18.2541 176.396 18.0488L176.625 19.0748C175.993 19.3485 175.255 19.4853 174.395 19.4853C172.318 19.4853 171.086 18.1704 171.086 16.1411C171.086 14.1043 172.348 12.5766 174.228 12.5766C175.924 12.5766 176.99 13.8306 176.99 15.7308C177.005 15.9436 176.99 16.1715 176.944 16.392ZM175.59 15.3355C175.59 14.3094 175.073 13.5874 174.129 13.5874C173.277 13.5874 172.607 14.3247 172.516 15.3355H175.59Z" fill="black"/>
</svg>
