<svg width="1440" height="552" viewBox="0 0 1440 552" fill="none" xmlns="http://www.w3.org/2000/svg">
<g clip-path="url(#clip0_1_193)">
<path d="M0 0H1440V552H0V0Z" fill="#6D33FA"/>
<path d="M1244.61 -1555.13C1652.92 -1426.24 1798.61 -574.237 1606.73 -197.035C1385.08 239.257 402.949 2.14199 220.276 -36.5552C87.4916 -65.009 813.348 -505.284 740.032 -947.077C661.784 -1418.27 165.739 -1556.46 242.754 -1592.6C300.231 -1656.62 757.958 -1708.88 1244.61 -1555.13Z" stroke="white" stroke-opacity="0.08" stroke-width="4.38131" stroke-miterlimit="10"/>
<path d="M1339.84 -1598C1799.65 -1491.02 1936.33 -513.536 1709.74 -100.766C1444.17 383.707 384.457 122.596 167.924 37.709C32.2938 -15.4996 709.399 -491.816 654.199 -998.862C596.058 -1532.47 153.981 -1739.99 261.252 -1720.36C339.69 -1743.78 784.991 -1726.9 1339.84 -1598Z" stroke="white" stroke-opacity="0.08" stroke-width="4.38131" stroke-miterlimit="10"/>
<path d="M1435.07 -1640.31C1946.2 -1554.95 2073.86 -452.456 1813.32 -3.92896C1503.74 529.105 390.63 179.882 116.146 112.447C-37.8841 74.5086 605.74 -477.685 568.845 -1050.27C530.907 -1646.28 132.554 -1899.24 280.324 -1847.73C374.98 -1814.82 811.841 -1744.45 1435.07 -1640.31Z" stroke="white" stroke-opacity="0.08" stroke-width="4.38131" stroke-miterlimit="10"/>
<path d="M1530.19 -1682.89C2092.72 -1618.68 2211.28 -391.565 1916.59 92.5284C1562.72 674.029 395.075 135.588 63.9679 187.374C-107.609 214.026 501.397 -463.459 483.187 -1101.68C464.218 -1759.91 118.03 -2087.22 299.091 -1974.92C411.768 -1905.5 838.575 -1761.71 1530.19 -1682.89Z" stroke="white" stroke-opacity="0.08" stroke-width="4.38131" stroke-miterlimit="10"/>
<path d="M1625.41 -1725.38C2239.25 -1682.32 2348.61 -331.147 2019.97 189.083C1621.62 818.86 390.992 174.666 11.9873 261.45C-173.437 303.941 397.157 -449.894 397.726 -1153.75C398.295 -1874.58 106.549 -2274.83 317.96 -2102.96C450.555 -1995.12 865.316 -1778.78 1625.41 -1725.38Z" stroke="white" stroke-opacity="0.08" stroke-width="4.38131" stroke-miterlimit="10"/>
<path d="M1720.66 -1767.97C2385.81 -1745.78 2485.68 -270.161 2123.28 285.636C1680.73 963.69 385.889 212.321 -40.0644 336C-239.81 393.951 292.655 -436.236 312.098 -1205.44C331.921 -1988.49 95.8497 -2460.91 336.758 -2230.53C490.03 -2084.09 892.271 -1795.57 1720.66 -1767.97Z" stroke="white" stroke-opacity="0.08" stroke-width="4.38131" stroke-miterlimit="10"/>
<path d="M1815.87 -1810.56C2532.34 -1809.13 2623.2 -209.461 2226.56 382.188C1739.62 1108.52 379.905 249.404 -92.1435 410.642C-306.685 483.958 188.032 -422.295 226.539 -1257.03C265.521 -2102.49 85.3135 -2646.15 355.53 -2358.1C529.857 -2172.49 918.915 -1812.26 1815.87 -1810.56Z" stroke="white" stroke-opacity="0.08" stroke-width="4.38131" stroke-miterlimit="10"/>
<path d="M1911.1 -1853.05C2679.35 -1872.01 2760.44 -148.852 2329.84 478.649C1798.71 1253.16 373.171 285.447 -144.213 485.003C-373.93 573.589 83.417 -408.636 140.989 -1308.82C199.034 -2216.68 74.5962 -2831.19 374.404 -2485.86C569.787 -2260.6 945.757 -1828.76 1911.1 -1853.05Z" stroke="white" stroke-opacity="0.08" stroke-width="4.38131" stroke-miterlimit="10"/>
<path d="M2006.32 -1895.63C2825.6 -1935.56 2897.88 -88.2473 2433.13 575.2C1857.23 1397.89 365.489 321.392 -196.284 559.55C-441.46 663.312 -21.3877 -394.884 55.3427 -1360.51C132.452 -2330.88 64.2581 -3015.76 393.184 -2613.43C609.812 -2348.52 972.693 -1845.17 2006.32 -1895.63Z" stroke="white" stroke-opacity="0.08" stroke-width="4.38131" stroke-miterlimit="10"/>
<path d="M2101.56 -1938.22C2972.24 -1998.73 3034.74 -27.6417 2536.42 671.753C1915.94 1542.53 358.191 357.054 -248.349 633.814C-509.08 752.941 -126.092 -381.038 -30.2031 -1412.49C65.8759 -2445.27 53.7355 -3200.43 411.969 -2741.28C649.748 -2436.35 999.635 -1861.58 2101.56 -1938.22Z" stroke="white" stroke-opacity="0.08" stroke-width="4.38131" stroke-miterlimit="10"/>
<path d="M2196.77 -1980.71C3118.95 -2061.8 3171.88 33.3443 2639.7 768.211C1974.64 1687.17 350.116 392.621 -300.527 708.553C-577.098 842.855 -231.005 -367.474 -115.862 -1463.99C-0.719087 -2560.5 43.1946 -3384.52 430.735 -2868.94C689.76 -2524.08 1026.56 -1877.8 2196.77 -1980.71Z" stroke="white" stroke-opacity="0.08" stroke-width="4.38131" stroke-miterlimit="10"/>
<path d="M2291.99 -2023.3C3265.68 -2124.88 3309.02 93.4754 2743.08 864.763C2033.35 1832.19 341.674 428.472 -352.504 783.101C-645.104 932.673 -335.811 -353.818 -201.415 -1515.68C-67.3972 -2673.47 32.5703 -3568.62 449.608 -2996.32C729.783 -2611.72 1053.49 -1894.12 2291.99 -2023.3Z" stroke="white" stroke-opacity="0.08" stroke-width="4.38131" stroke-miterlimit="10"/>
<path d="M2387.23 -2065.88C3412.42 -2187.95 3444.67 152.947 2846.1 961.32C2089.89 1975.03 332.68 463.378 -404.842 857.558C-713.471 1022.5 -440.978 -340.157 -287.233 -1567.37C-134.341 -2787.66 21.6804 -3752.81 468.12 -3123.98C769.825 -2699.36 1080.64 -1910.24 2387.23 -2065.88Z" stroke="white" stroke-opacity="0.08" stroke-width="4.38131" stroke-miterlimit="10"/>
<path d="M2482.45 -2108.37C3559.14 -2250.93 3581.9 213.552 2949.66 1057.68C2149.06 2119.96 324.227 498.09 -456.639 931.915C-781.487 1112.12 -545.605 -326.691 -372.511 -1619.44C-200.84 -2902.33 11.3306 -3937.19 487.173 -3252.02C809.839 -2786.99 1107.66 -1926.46 2482.45 -2108.37Z" stroke="white" stroke-opacity="0.08" stroke-width="4.38131" stroke-miterlimit="10"/>
<path d="M2577.67 -2150.96C3706.34 -2313.9 3719.24 274.252 3052.94 1154.33C2207.96 2264.03 315.31 533.94 -508.712 1006.56C-850.157 1202.22 -652.783 -313.129 -458.064 -1670.85C-269.795 -3016.52 0.705699 -4120.91 505.95 -3379.21C849.862 -2874.54 1134.78 -1942.58 2577.67 -2150.96Z" stroke="white" stroke-opacity="0.08" stroke-width="4.38131" stroke-miterlimit="10"/>
<path d="M2672.89 -2193.54C3853.06 -2374.79 3856.57 334.959 3156.23 1250.89C2266.86 2409.33 306.2 569.228 -560.882 1081.11C-918.167 1292.05 -757.213 -299.466 -543.715 -1722.54C-336.097 -3130.71 -9.92186 -4304.81 524.82 -3506.87C889.882 -2962.08 1162.28 -1956.05 2672.89 -2193.54Z" stroke="white" stroke-opacity="0.08" stroke-width="4.38131" stroke-miterlimit="10"/>
<path d="M2768.13 -2236.04C3999.8 -2438.25 3993.73 395.561 3259.53 1347.44C2325.87 2554.07 297.017 604.412 -612.935 1155.66C-986.534 1381.96 -861.716 -286.002 -629.249 -1774.23C-402.377 -3244.91 -20.6223 -4488.82 543.616 -3634.44C930.209 -3049.15 1189.33 -1972.74 2768.13 -2236.04Z" stroke="white" stroke-opacity="0.08" stroke-width="4.38131" stroke-miterlimit="10"/>
<path d="M2863.36 -2278.62C4146.53 -2501.7 4131.16 456.264 3362.81 1443.89C2384.76 2698.52 287.624 639.696 -665.009 1230.11C-1055.02 1471.87 -966.714 -272.058 -714.803 -1825.63C-468.204 -3358.82 -29.7307 -4673.48 562.393 -3761.82C971.084 -3137.83 1216.36 -1989.53 2863.36 -2278.62Z" stroke="white" stroke-opacity="0.08" stroke-width="4.38131" stroke-miterlimit="10"/>
<path d="M2958.57 -2321.21C4293.24 -2565.44 4268.77 517.059 3466.09 1540.45C2443.65 2843.54 278.221 674.977 -717.092 1304.28C-1123.6 1561.5 -1070.77 -258.782 -800.462 -1877.99C-534.988 -3473.4 -41.2199 -4857.1 581.159 -3889.77C1010.53 -3224.9 1243.18 -2005.84 2958.57 -2321.21Z" stroke="white" stroke-opacity="0.08" stroke-width="4.38131" stroke-miterlimit="10"/>
<path d="M600.042 -4017.34C1049.99 -3312.06 1270.51 -2023.01 3053.8 -2363.7C4440.07 -2628.6 4405.83 577.571 3569.48 1637C2502.56 2988.37 268.84 710.26 -769.155 1379.11C-1608.54 1920.12 -715.756 -6079.95 600.042 -4017.34Z" stroke="white" stroke-opacity="0.08" stroke-width="4.38131" stroke-miterlimit="10"/>
</g>
<defs>
<clipPath id="clip0_1_193">
<rect width="1440" height="552" fill="white"/>
</clipPath>
</defs>
</svg>
