<svg width="198" height="198" viewBox="0 0 198 198" fill="none" xmlns="http://www.w3.org/2000/svg">
<g filter="url(#filter0_d_1_7253)">
<circle cx="99" cy="69" r="39" fill="white"/>
</g>
<g clip-path="url(#clip0_1_7253)">
<path d="M93.5929 57.0317C93.9206 56.1436 94.3712 55.326 95.0403 54.6634C97.7166 51.9709 102.141 52.6476 103.957 56.0308C105.322 58.5965 106.77 61.1057 108.176 63.6432C110.525 67.8581 112.901 72.0731 115.222 76.3022C117.174 79.8405 115.058 84.3092 111.18 84.9154C108.804 85.2819 106.578 84.1542 105.35 81.9551C103.288 78.2476 101.212 74.5401 99.1503 70.8467C99.1094 70.7621 99.0547 70.6916 99.0001 70.6211C98.7816 70.4379 98.6861 70.17 98.5495 69.9304C97.6347 68.267 96.6925 66.6176 95.7776 64.9683C95.1905 63.8969 94.576 62.8396 93.9889 61.7683C93.4564 60.8097 93.2106 59.7665 93.2379 58.667C93.2789 58.1031 93.3471 57.5392 93.5929 57.0317Z" fill="#3C8BD9"/>
<path d="M93.5926 57.0317C93.4697 57.5392 93.3605 58.0467 93.3332 58.5824C93.2922 59.7665 93.579 60.8661 94.1525 61.8952C95.6544 64.5595 97.1564 67.2379 98.6448 69.9163C98.7813 70.156 98.8906 70.3956 99.0271 70.6212C98.2078 72.0872 97.3885 73.5392 96.5556 75.0053C95.4087 77.0493 94.2617 79.1075 93.101 81.1516C93.0464 81.1516 93.0328 81.1234 93.0191 81.0811C93.0055 80.9683 93.0464 80.8696 93.0737 80.7568C93.6336 78.6423 93.1693 76.7674 91.7629 75.1604C90.9027 74.1877 89.8103 73.6379 88.5541 73.4546C86.9155 73.215 85.4681 73.652 84.1709 74.7093C83.9388 74.8925 83.7886 75.1604 83.5155 75.3013C83.4609 75.3013 83.4336 75.2731 83.4199 75.2308C84.0753 74.0608 84.7171 72.8908 85.3725 71.7207C88.0761 66.8714 90.7798 62.022 93.497 57.1868C93.5243 57.1304 93.5653 57.0881 93.5926 57.0317Z" fill="#FABC04"/>
<path d="M83.4749 75.2731C83.7344 75.0335 83.9802 74.7797 84.2533 74.5542C87.5713 71.8476 92.5553 73.807 93.279 78.0925C93.4565 79.1216 93.3609 80.1084 93.0605 81.0951C93.0468 81.1797 93.0332 81.2502 93.0059 81.3348C92.883 81.5603 92.7737 81.8 92.6372 82.0255C91.4219 84.0978 89.6332 85.1269 87.2846 84.9718C84.5946 84.7744 82.4782 82.6881 82.1095 79.9251C81.932 78.5859 82.1914 77.3313 82.8605 76.1753C82.997 75.9216 83.1609 75.696 83.3111 75.4423C83.3794 75.3859 83.3521 75.2731 83.4749 75.2731Z" fill="#34A852"/>
<path d="M83.4746 75.2732C83.42 75.3296 83.42 75.4282 83.3244 75.4423C83.3107 75.3437 83.3654 75.2873 83.42 75.2168L83.4746 75.2732Z" fill="#FABC04"/>
<path d="M93.0055 81.3349C92.9509 81.2362 93.0055 81.1657 93.0602 81.0952C93.0738 81.1093 93.1011 81.1375 93.1148 81.1516L93.0055 81.3349Z" fill="#E1C025"/>
</g>
<defs>
<filter id="filter0_d_1_7253" x="0" y="0" width="198" height="198" filterUnits="userSpaceOnUse" color-interpolation-filters="sRGB">
<feFlood flood-opacity="0" result="BackgroundImageFix"/>
<feColorMatrix in="SourceAlpha" type="matrix" values="0 0 0 0 0 0 0 0 0 0 0 0 0 0 0 0 0 0 127 0" result="hardAlpha"/>
<feOffset dy="30"/>
<feGaussianBlur stdDeviation="30"/>
<feComposite in2="hardAlpha" operator="out"/>
<feColorMatrix type="matrix" values="0 0 0 0 0.344915 0 0 0 0 0.309028 0 0 0 0 0.432639 0 0 0 0.15 0"/>
<feBlend mode="normal" in2="BackgroundImageFix" result="effect1_dropShadow_1_7253"/>
<feBlend mode="normal" in="SourceGraphic" in2="effect1_dropShadow_1_7253" result="shape"/>
</filter>
<clipPath id="clip0_1_7253">
<rect width="34" height="32" fill="white" transform="translate(82 53)"/>
</clipPath>
</defs>
</svg>
