<svg width="179" height="179" viewBox="0 0 179 179" fill="none" xmlns="http://www.w3.org/2000/svg">
<g filter="url(#filter0_d_1_7280)">
<circle cx="89.5" cy="59.5" r="29.5" fill="white"/>
</g>
<g clip-path="url(#clip0_1_7280)">
<path d="M102.01 62.6287C101.35 62.6287 100.836 62.1257 100.763 61.479C100.322 55.2994 96.8738 46.5868 90.472 46.5868C85.1892 46.5868 81.2087 50.1796 78.6406 57.3113C78.4205 57.958 77.6868 58.3173 77.0264 58.0299C76.3661 57.8143 75.9992 57.0958 76.2927 56.5209C79.2276 48.3113 84.0152 44.1437 90.472 44.1437C98.9282 44.1437 102.817 54.6527 103.257 61.3353C103.331 61.982 102.817 62.6287 102.083 62.6287H102.01Z" fill="#272727"/>
<path opacity="0.4" d="M104.945 65L82.8967 73.9282L74.147 53.1977L78.1091 51.6169L96.2505 44.3414L104.945 65Z" fill="#FFE000"/>
<path d="M103.918 67.3892L80.5488 72.1317L75.9263 50.1796L79.815 49.3892L99.2955 45.4371L103.918 67.3892Z" fill="#FFE000"/>
<path d="M90.1786 67.1737C85.9229 67.1737 81.7957 65.3772 78.9342 62.2156C78.5673 61.9281 78.4939 61.4251 78.6407 60.994C79.4478 58.9101 81.5756 54.0778 84.2904 54.006C85.6845 54.006 86.7117 55.0838 87.5188 55.9461C87.7389 56.2335 88.1058 56.5928 88.3993 56.8083C89.0596 56.1616 90.307 54.1497 91.2608 52.0658C91.5543 51.4191 92.288 51.2036 92.9484 51.491C93.6087 51.7784 93.8288 52.497 93.5354 53.1437C90.6004 59.3952 89.0596 59.3952 88.4726 59.3952C87.2987 59.3952 86.4916 58.5329 85.6845 57.6706C85.3176 57.3113 84.5839 56.5209 84.2904 56.5209C83.63 56.5928 82.2359 58.8203 81.2821 61.1916C83.7034 63.5629 87.0052 64.8563 90.3987 64.7844C93.3336 64.7844 98.5614 64.2814 100.689 61.1916C100.102 55.0119 96.6537 46.6586 90.3987 46.6586C89.7383 46.6586 89.1513 46.0838 89.1513 45.4371C89.1513 44.7904 89.7383 44.1437 90.472 44.1437C98.9283 44.1437 102.817 54.6527 103.257 61.3353C103.257 61.5509 103.184 61.8383 103.111 62.0539C101.129 65.3593 96.6537 67.2275 90.472 67.2275C90.3987 67.1737 90.2519 67.1737 90.1786 67.1737Z" fill="#272727"/>
</g>
<defs>
<filter id="filter0_d_1_7280" x="0" y="0" width="179" height="179" filterUnits="userSpaceOnUse" color-interpolation-filters="sRGB">
<feFlood flood-opacity="0" result="BackgroundImageFix"/>
<feColorMatrix in="SourceAlpha" type="matrix" values="0 0 0 0 0 0 0 0 0 0 0 0 0 0 0 0 0 0 127 0" result="hardAlpha"/>
<feOffset dy="30"/>
<feGaussianBlur stdDeviation="30"/>
<feComposite in2="hardAlpha" operator="out"/>
<feColorMatrix type="matrix" values="0 0 0 0 0.344915 0 0 0 0 0.309028 0 0 0 0 0.432639 0 0 0 0.15 0"/>
<feBlend mode="normal" in2="BackgroundImageFix" result="effect1_dropShadow_1_7280"/>
<feBlend mode="normal" in="SourceGraphic" in2="effect1_dropShadow_1_7280" result="shape"/>
</filter>
<clipPath id="clip0_1_7280">
<rect width="31" height="30" fill="white" transform="translate(74 44)"/>
</clipPath>
</defs>
</svg>
