<svg width="120" height="39" viewBox="0 0 120 39" fill="none" xmlns="http://www.w3.org/2000/svg">
<path fill-rule="evenodd" clip-rule="evenodd" d="M7.98858 3.89801C6.66797 4.82142 5.47378 5.91319 4.43712 7.14219C8.6734 6.7489 14.0554 7.3911 20.3039 10.5154C26.9765 13.8516 32.3495 13.9644 36.0889 13.2431C35.7496 12.2158 35.3224 11.2285 34.8164 10.2899C30.5358 10.7413 25.0482 10.1437 18.6527 6.94611C14.5915 4.91553 11.0117 4.07906 7.98858 3.89801ZM32.3159 6.73073C28.9355 2.95382 24.023 0.576904 18.5552 0.576904C16.9495 0.576904 15.3916 0.781926 13.9063 1.16719C15.9179 1.71606 18.0548 2.51904 20.3039 3.64361C24.9863 5.98477 29.0288 6.73859 32.3159 6.73073ZM36.8884 16.849C32.3708 17.741 26.1326 17.5578 18.6527 13.8179C11.6598 10.3214 6.09415 10.3655 2.34042 11.1997C2.14667 11.2427 1.95748 11.2879 1.77285 11.335C1.2814 12.4038 0.889104 13.5277 0.607629 14.6949C0.90826 14.6146 1.21891 14.5382 1.53943 14.467C6.09335 13.455 12.5276 13.4989 20.3039 17.3871C27.2969 20.8836 32.8626 20.8395 36.6163 20.0053C36.7449 19.9768 36.8717 19.9473 36.9963 19.9168C37.0099 19.6258 37.0168 19.3329 37.0168 19.0384C37.0168 18.2977 36.9732 17.567 36.8884 16.849ZM36.3935 23.8129C31.9198 24.595 25.8632 24.2948 18.6527 20.6896C11.6598 17.1932 6.09415 17.2372 2.34042 18.0714C1.50721 18.2565 0.757663 18.482 0.0964546 18.7201C0.0946519 18.8259 0.09375 18.9321 0.09375 19.0384C0.09375 29.2345 8.35925 37.5 18.5552 37.5C27.1002 37.5 34.2894 31.6946 36.3935 23.8129Z" fill="#272727"/>
<path d="M47.0513 28.8076V10.0828H58.1432V12.8005H49.769V18.0799H56.5828V20.8106H49.769V28.8076H47.0513ZM60.4864 28.8076V14.764H62.9051V18.1709L62.567 17.7288C62.7404 17.278 62.9657 16.8662 63.2431 16.4934C63.5206 16.112 63.8413 15.7999 64.2054 15.5572C64.5608 15.2971 64.9553 15.0978 65.3887 14.9591C65.8308 14.8117 66.2816 14.725 66.741 14.699C67.2005 14.6643 67.6426 14.686 68.0674 14.764V17.3127C67.6079 17.1913 67.0965 17.1566 66.533 17.2086C65.9782 17.2606 65.4667 17.4384 64.9986 17.7418C64.5565 18.0278 64.2054 18.3746 63.9453 18.782C63.6939 19.1895 63.5119 19.6446 63.3992 20.1474C63.2865 20.6415 63.2301 21.166 63.2301 21.7208V28.8076H60.4864ZM72.0866 35.0492L74.8043 27.6503L74.8434 29.8349L68.7188 14.764H71.5535L76.1307 26.402H75.2985L79.6676 14.764H82.4243L74.6743 35.0492H72.0866ZM91.054 29.1977C89.7104 29.1977 88.5834 28.8726 87.6732 28.2225C86.7629 27.5636 86.0738 26.6751 85.6056 25.5568C85.1375 24.4385 84.9035 23.1772 84.9035 21.7728C84.9035 20.3684 85.1332 19.1071 85.5926 17.9888C86.0608 16.8705 86.7456 15.9907 87.6472 15.3492C88.5574 14.699 89.6757 14.3739 91.002 14.3739C92.3197 14.3739 93.4553 14.699 94.4089 15.3492C95.3712 15.9907 96.1124 16.8705 96.6325 17.9888C97.1526 19.0985 97.4127 20.3598 97.4127 21.7728C97.4127 23.1772 97.1526 24.4428 96.6325 25.5698C96.121 26.6881 95.3885 27.5723 94.4349 28.2225C93.49 28.8726 92.3631 29.1977 91.054 29.1977ZM84.4484 28.8076V10.0828H87.1791V18.704H86.867V28.8076H84.4484ZM90.677 26.7401C91.5438 26.7401 92.259 26.519 92.8225 26.0769C93.3947 25.6348 93.8194 25.041 94.0968 24.2955C94.3829 23.5413 94.5259 22.7004 94.5259 21.7728C94.5259 20.8539 94.3829 20.0217 94.0968 19.2762C93.8194 18.5306 93.3903 17.9368 92.8095 17.4947C92.2287 17.0526 91.4875 16.8315 90.5859 16.8315C89.7364 16.8315 89.0342 17.0396 88.4794 17.4557C87.9332 17.8718 87.5258 18.4526 87.2571 19.1981C86.997 19.9437 86.867 20.8019 86.867 21.7728C86.867 22.7437 86.997 23.6019 87.2571 24.3475C87.5171 25.093 87.9289 25.6781 88.4924 26.1029C89.0559 26.5277 89.7841 26.7401 90.677 26.7401ZM100.544 12.4624V9.82275H103.261V12.4624H100.544ZM100.544 28.8076V14.764H103.261V28.8076H100.544ZM105.606 28.8076L110.859 21.7078L105.723 14.764H108.948L112.446 19.5882L115.905 14.764H119.129L113.993 21.7078L119.259 28.8076H116.022L112.446 23.8273L108.844 28.8076H105.606Z" fill="#272727"/>
</svg>
