<svg width="198" height="198" viewBox="0 0 198 198" fill="none" xmlns="http://www.w3.org/2000/svg">
<g filter="url(#filter0_d_1_7286)">
<circle cx="99" cy="69" r="39" fill="white"/>
</g>
<path d="M108.313 68.3525C108.598 68.3158 108.882 68.3158 109.167 68.3525C109.323 68.0037 109.351 67.3886 109.213 66.7369C109.011 65.7547 108.726 65.158 108.157 65.2498C107.588 65.3416 107.56 66.0576 107.772 67.0398C107.873 67.5814 108.084 68.0588 108.313 68.3525ZM103.384 69.1328C103.797 69.3164 104.045 69.4357 104.146 69.3256C104.32 69.1511 103.824 68.4627 103.035 68.123C102.099 67.7375 101.034 67.866 100.217 68.4627C99.9414 68.6646 99.6843 68.94 99.721 69.1144C99.8037 69.4541 100.639 68.8666 101.805 68.7931C102.438 68.7472 102.971 68.9492 103.384 69.1328ZM102.558 69.601C101.722 69.7295 101.181 70.1976 101.318 70.5281C101.401 70.5556 101.428 70.6015 101.796 70.4547C102.346 70.2435 102.934 70.1884 103.521 70.2711C103.788 70.2986 103.916 70.317 103.98 70.2252C104.1 70.0324 103.448 69.5 102.558 69.601ZM107.533 71.1799C107.845 70.5465 106.532 69.8947 106.22 70.5373C105.908 71.1707 107.23 71.8133 107.533 71.1799ZM108.974 69.298C108.267 69.2888 108.24 70.7484 108.947 70.7668C109.663 70.7668 109.69 69.3072 108.974 69.298ZM88.8523 76.55C88.733 76.5775 88.3015 76.6877 88.072 76.3297C87.5947 75.5953 89.091 74.457 88.3474 73.0342C87.5121 71.4277 85.7863 71.7857 85.1253 72.5201C84.3267 73.4013 84.3267 74.6865 84.6664 74.7324C85.0611 74.7875 85.0427 74.1357 85.3457 73.6584C85.7037 73.1076 86.4289 72.9515 86.9796 73.3095C86.9796 73.3095 86.9888 73.3095 86.9888 73.3187C88.0537 74.0164 87.1173 74.9527 87.2 75.9533C87.3285 77.4863 88.8982 77.4588 89.1828 76.7795C89.2195 76.7152 89.2103 76.6234 89.1644 76.5683C89.1644 76.6693 89.2195 76.4674 88.8523 76.55ZM116.428 74.9802C116.116 73.897 116.189 74.1357 115.804 73.0892C116.033 72.7496 117.208 70.8769 115.519 69.1144C114.565 68.1138 112.398 67.5906 111.737 67.407C111.6 66.3605 112.169 62.0093 109.754 59.7695C111.664 57.7867 112.857 55.6019 112.857 53.7293C112.848 50.1308 108.423 49.0385 102.971 51.2967L101.814 51.7832C101.805 51.774 99.721 49.7361 99.6935 49.7086C93.488 44.2926 74.0455 65.8924 80.2601 71.1431L81.6187 72.2906C81.2515 73.2728 81.123 74.3285 81.2423 75.375C81.5544 78.4502 84.5562 80.9379 87.457 80.9287C92.772 93.1744 112.104 93.1927 117.107 81.2041C117.263 80.791 117.943 78.9367 117.943 77.3027C117.943 75.6687 117.016 74.9802 116.428 74.9802ZM87.3468 79.414C85.2447 79.359 82.9773 77.4679 82.757 75.2281C82.1878 69.5918 89.5867 68.3066 90.4863 74.0898C90.9085 76.8162 90.0548 79.4691 87.3468 79.414ZM85.6486 68.9033C84.2533 69.1787 83.0232 69.9681 82.2705 71.0605C81.8207 70.6842 80.9853 69.959 80.8384 69.6836C79.6451 67.3978 82.1511 62.964 83.9044 60.4672C88.2373 54.2801 95.021 49.5984 98.1697 50.4429C98.6837 50.5898 100.373 52.5451 100.373 52.5451C100.373 52.5451 97.2334 54.2892 94.3234 56.7218C90.3853 59.7511 87.4203 64.139 85.6486 68.9033ZM107.625 78.2115C107.625 78.2115 104.338 78.698 101.227 77.5597C101.796 75.7054 103.714 78.1197 110.094 76.2929C111.499 75.889 113.344 75.0996 114.785 73.9613C115.097 74.6773 115.317 75.4301 115.437 76.192C115.776 76.1277 116.749 76.1461 116.492 77.8535C116.189 79.6802 115.409 81.1674 114.106 82.5351C113.289 83.4164 112.316 84.1508 111.242 84.6832C110.645 84.9953 110.011 85.2615 109.369 85.4726C104.449 87.0791 99.4089 85.3166 97.775 81.5162C97.6464 81.2224 97.5363 80.9287 97.4445 80.6166C96.756 78.1105 97.3435 75.1088 99.1794 73.2177C99.2896 73.0984 99.4089 72.9515 99.4089 72.7771C99.3906 72.6211 99.3355 72.4742 99.2345 72.3549C98.5919 71.4185 96.3613 69.8304 96.8111 66.7552C97.1324 64.5429 99.0601 62.9916 100.869 63.0834L101.327 63.1109C102.108 63.1568 102.787 63.2578 103.43 63.2853C104.504 63.3312 105.477 63.1752 106.615 62.2205C107.001 61.8992 107.313 61.6146 107.836 61.532C108.267 61.4218 108.717 61.5045 109.084 61.734C110.002 62.349 110.131 63.8269 110.177 64.9101C110.204 65.5252 110.278 67.0306 110.305 67.4529C110.36 68.4351 110.617 68.5728 111.141 68.7381C111.434 68.839 111.71 68.9033 112.104 69.0226C113.316 69.3623 114.032 69.7111 114.5 70.1517C114.739 70.3812 114.886 70.6842 114.941 71.0054C115.088 72.0519 114.133 73.3463 111.6 74.5121C107.303 76.5041 102.98 75.8431 102.356 75.7697C100.501 75.5218 99.4457 77.9177 100.556 79.5517C102.64 82.6269 111.82 81.3877 114.482 77.5873C114.546 77.4955 114.491 77.4404 114.418 77.4955C110.571 80.1209 105.486 81.0113 102.594 79.8914C102.154 79.717 101.236 79.2947 101.126 78.3584C105.137 79.5976 107.661 78.4226 107.661 78.4226C107.661 78.4226 107.863 78.184 107.625 78.2115ZM93.6533 60.4396C95.1955 58.6588 97.0865 57.1074 98.7939 56.2445C98.8214 56.2261 98.8673 56.2353 98.8857 56.272C98.8949 56.2904 98.8949 56.3179 98.8857 56.3363C98.748 56.5842 98.491 57.1074 98.4084 57.5021C98.3992 57.5388 98.4267 57.5756 98.4634 57.5847C98.4818 57.5939 98.5002 57.5847 98.5185 57.5756C99.5742 56.8595 101.419 56.0793 103.026 55.9875C103.062 55.9875 103.099 56.015 103.099 56.0517C103.099 56.0793 103.09 56.0976 103.072 56.116C102.805 56.3179 102.567 56.5566 102.365 56.832C102.346 56.8595 102.346 56.9054 102.383 56.9238C102.392 56.933 102.411 56.933 102.42 56.933C103.549 56.9422 105.146 57.3369 106.193 57.9244C106.266 57.9611 106.211 58.0988 106.138 58.0804C99.7394 56.6117 94.8099 59.7879 93.7634 60.5498C93.7267 60.5681 93.69 60.559 93.6625 60.5314C93.6349 60.4947 93.6349 60.458 93.6533 60.4396Z" fill="#272727"/>
<defs>
<filter id="filter0_d_1_7286" x="0" y="0" width="198" height="198" filterUnits="userSpaceOnUse" color-interpolation-filters="sRGB">
<feFlood flood-opacity="0" result="BackgroundImageFix"/>
<feColorMatrix in="SourceAlpha" type="matrix" values="0 0 0 0 0 0 0 0 0 0 0 0 0 0 0 0 0 0 127 0" result="hardAlpha"/>
<feOffset dy="30"/>
<feGaussianBlur stdDeviation="30"/>
<feComposite in2="hardAlpha" operator="out"/>
<feColorMatrix type="matrix" values="0 0 0 0 0.344915 0 0 0 0 0.309028 0 0 0 0 0.432639 0 0 0 0.15 0"/>
<feBlend mode="normal" in2="BackgroundImageFix" result="effect1_dropShadow_1_7286"/>
<feBlend mode="normal" in="SourceGraphic" in2="effect1_dropShadow_1_7286" result="shape"/>
</filter>
</defs>
</svg>
