<svg width="1440" height="741" viewBox="0 0 1440 741" fill="none" xmlns="http://www.w3.org/2000/svg">
<g clip-path="url(#clip0_1_433)">
<rect width="1440" height="741" fill="#6D33FA" fill-opacity="0.07"/>
<path d="M1564.61 382.331C1391.12 481.653 1297.59 823.547 1367.27 998.334C1444.25 1191.35 1925.6 1162.03 1980.84 1114.97C2036.07 1067.9 1584.52 917.297 1646.14 739.696C1714.57 542.566 2058.2 542.296 2048.84 458.121C2039.64 375.298 1765.15 267.537 1564.61 382.331Z" stroke="#6D33FA" stroke-opacity="0.03" stroke-width="5" stroke-miterlimit="10"/>
<path d="M1510.3 358.043C1306.95 444.598 1218.72 858.441 1308.36 1053.41C1409.95 1274.23 1932.91 1192.38 2010.54 1157.44C2077.46 1127.36 1643.06 924.818 1694.99 710.215C1751.36 477.057 2061.28 439.189 2038.13 385.092C2013.24 327.1 1748.92 256.719 1510.3 358.043Z" stroke="#6D33FA" stroke-opacity="0.03" stroke-width="5" stroke-miterlimit="10"/>
<path d="M1455.99 333.809C1223.1 407.327 1140.01 893.281 1249.45 1108.42C1375.87 1357.27 1936.05 1222.03 2040.24 1199.96C2115.97 1183.73 1701.97 932.61 1743.79 680.625C1788.42 411.871 2071.34 333.052 2027.42 312.441C1994.63 275.925 1733.56 246.118 1455.99 333.809Z" stroke="#6D33FA" stroke-opacity="0.03" stroke-width="5" stroke-miterlimit="10"/>
<path d="M1401.68 309.358C1139.41 370.379 1061.46 927.903 1190.7 1163.33C1342.17 1439.66 1946.6 1290.73 2070.1 1242.32C2147.46 1211.97 1761.26 940.292 1792.74 651.089C1825.9 346.739 2078.05 228.374 2016.87 239.572C1972.13 226.21 1718.14 235.84 1401.68 309.358Z" stroke="#6D33FA" stroke-opacity="0.03" stroke-width="5" stroke-miterlimit="10"/>
<path d="M1347.36 285.23C1055.83 333.917 983.014 962.742 1131.62 1218.57C1308.19 1522.59 1943.07 1323.41 2099.63 1284.94C2187.49 1263.3 1820.38 948.352 1841.43 621.768C1863.07 281.822 2090.27 137.545 2005.99 166.92C1952 185.691 1702.83 225.831 1347.36 285.23Z" stroke="#6D33FA" stroke-opacity="0.03" stroke-width="5" stroke-miterlimit="10"/>
<path d="M1293.11 260.94C972.256 297.563 904.634 997.471 1072.71 1273.58C1274.55 1605.25 1940.54 1298.14 2129.39 1327.68C2227.25 1342.88 1879.9 956.466 1890.28 592.446C1901.1 217.013 2098.56 30.3239 1995.29 94.3748C1931.02 133.974 1687.58 215.985 1293.11 260.94Z" stroke="#6D33FA" stroke-opacity="0.03" stroke-width="5" stroke-miterlimit="10"/>
<path d="M1238.79 236.705C888.679 261.265 826.305 1031.93 1013.75 1328.65C1240.96 1687.86 1942.87 1320.43 2159.04 1369.93C2264.8 1394.17 1939.35 964.203 1939.03 562.748C1938.7 151.611 2105.1 -76.679 1984.52 21.3448C1908.89 82.8532 1672.33 206.249 1238.79 236.705Z" stroke="#6D33FA" stroke-opacity="0.03" stroke-width="5" stroke-miterlimit="10"/>
<path d="M1184.47 212.415C805.088 225.074 748.124 1066.72 954.829 1383.73C1207.25 1770.47 1945.78 1341.91 2188.73 1412.45C2302.66 1445.5 1998.96 971.992 1987.87 533.265C1976.56 86.6398 2111.21 -182.818 1973.8 -51.416C1886.38 32.1099 1656.95 196.673 1184.47 212.415Z" stroke="#6D33FA" stroke-opacity="0.03" stroke-width="5" stroke-miterlimit="10"/>
<path d="M1130.16 188.125C721.513 188.936 669.688 1101.34 895.922 1438.79C1173.66 1853.07 1949.19 1363.06 2218.43 1455.02C2340.8 1496.84 2058.63 979.944 2036.67 503.836C2014.43 21.6143 2117.22 -288.47 1963.09 -124.177C1863.66 -18.3094 1641.76 187.151 1130.16 188.125Z" stroke="#6D33FA" stroke-opacity="0.03" stroke-width="5" stroke-miterlimit="10"/>
<path d="M1075.85 163.891C637.662 153.071 591.409 1135.91 837.01 1493.81C1139.95 1935.57 1953.03 1383.62 2248.13 1497.44C2379.16 1547.96 2118.3 987.735 2085.46 474.3C2052.35 -43.5176 2123.33 -394.012 1952.33 -197.045C1840.89 -68.5645 1626.45 177.739 1075.85 163.891Z" stroke="#6D33FA" stroke-opacity="0.03" stroke-width="5" stroke-miterlimit="10"/>
<path d="M1021.53 139.6C554.245 116.826 513.023 1170.47 778.098 1548.88C1106.58 2018.12 1957.41 1404.12 2277.83 1539.96C2417.67 1599.14 2178.08 995.578 2134.31 444.816C2090.33 -108.651 2129.23 -499.286 1941.62 -269.806C1818.06 -118.713 1611.08 168.38 1021.53 139.6Z" stroke="#F1EBFF" stroke-width="5" stroke-miterlimit="10"/>
<path d="M967.218 115.31C470.607 80.796 434.957 1205.04 719.183 1603.95C1073.09 2100.62 1961.58 1424.46 2307.53 1582.31C2456.24 1650.26 2237.8 1003.48 2183.1 415.17C2128.3 -173.893 2135.23 -604.614 1930.9 -342.73C1795.28 -168.808 1595.72 159.02 967.218 115.31Z" stroke="#6D33FA" stroke-opacity="0.03" stroke-width="5" stroke-miterlimit="10"/>
<path d="M912.912 91.0749C386.927 44.8219 356.74 1239.83 660.279 1658.97C1039.61 2183.12 1966.18 1444.75 2337.29 1624.94C2495.03 1701.54 2297.63 1011.21 2231.96 385.796C2166.29 -239.62 2141.24 -709.616 1920.2 -415.544C1772.46 -218.847 1580.36 149.77 912.912 91.0749Z" stroke="#6D33FA" stroke-opacity="0.03" stroke-width="5" stroke-miterlimit="10"/>
<path d="M858.6 66.7848C303.24 8.84682 278.517 1274.12 601.315 1714.04C1006.12 2265.83 1971 1465.19 2366.93 1667.46C2533.82 1752.77 2357.41 1019 2280.76 356.312C2204.32 -304.051 2147.3 -814.619 1909.44 -488.197C1749.63 -268.833 1565 140.465 858.6 66.7848Z" stroke="#6D33FA" stroke-opacity="0.03" stroke-width="5" stroke-miterlimit="10"/>
<path d="M804.277 42.4968C219.542 -27.1262 201.149 1308.04 542.555 1769.11C973.871 2347.3 1976.13 1485.1 2396.79 1709.93C2572.82 1804.01 2417.4 1026.79 2329.71 326.831C2242.5 -369.182 2153.51 -919.674 1898.88 -561.01C1726.79 -318.817 1549.52 131.27 804.277 42.4968Z" stroke="#6D33FA" stroke-opacity="0.03" stroke-width="5" stroke-miterlimit="10"/>
<path d="M749.97 18.2604C135.86 -63.0475 122.877 1342.61 483.488 1824.07C940.121 2429.96 1980.95 1504.9 2426.33 1752.34C2611.61 1855.13 2477.07 1034.47 2378.35 297.131C2280.43 -434.586 2159.41 -1024.84 1888.01 -634.042C1703.97 -368.804 1534.11 122.019 749.97 18.2604Z" stroke="#6D33FA" stroke-opacity="0.03" stroke-width="5" stroke-miterlimit="10"/>
<path d="M695.657 -6.03016C51.9017 -98.9689 44.5445 1377.23 424.576 1879.2C906.527 2512.13 1986.03 1525.35 2456.03 1794.92C2650.78 1906.52 2538.2 1042.21 2427.14 267.809C2319.76 -499.72 2165.47 -1129.63 1877.3 -706.587C1681.14 -418.737 1518.64 112.821 695.657 -6.03016Z" stroke="#6D33FA" stroke-opacity="0.03" stroke-width="5" stroke-miterlimit="10"/>
<path d="M641.347 -30.3167C-31.7829 -133.696 -33.7844 1411.86 365.668 1934.27C872.936 2595.01 1991.23 1545.48 2485.79 1837.44C2689.57 1957.75 2597.77 1050 2475.99 238.329C2357.58 -564.85 2171.54 -1234.52 1866.54 -779.399C1658.32 -468.665 1502.95 105.142 641.347 -30.3167Z" stroke="#6D33FA" stroke-opacity="0.03" stroke-width="5" stroke-miterlimit="10"/>
<path d="M587.024 -54.5544C-115.481 -169.889 -112.019 1446.42 306.747 1989.34C839.278 2677.56 1996.47 1565.54 2515.48 1879.96C2728.56 2009.03 2657.37 1057.68 2524.78 208.844C2395.38 -629.985 2177.64 -1339.47 1855.82 -852.161C1635.32 -518.328 1487.52 95.6191 587.024 -54.5544Z" stroke="#6D33FA" stroke-opacity="0.03" stroke-width="5" stroke-miterlimit="10"/>
<path d="M532.712 -78.843C-199.167 -206.079 -190.403 1481.05 247.837 2044.36C805.686 2759.95 2001.83 1585.67 2545.18 1922.42C2767.62 2060.32 2717.26 1065.63 2573.58 179.525C2432.93 -694.954 2182.83 -1444.79 1845.11 -924.813C1612 -568.908 1472.11 86.0448 532.712 -78.843Z" stroke="#6D33FA" stroke-opacity="0.03" stroke-width="5" stroke-miterlimit="10"/>
<path d="M478.405 -103.134C-282.849 -242.434 -268.892 1515.72 188.932 2099.43C772.098 2842.67 2007.19 1605.79 2574.88 1964.73C2806.74 2111.44 2776.61 1073.21 2622.43 149.662C2471.02 -760.305 2189.39 -1549.53 1834.4 -997.791C1589.51 -618.571 1456.8 76.7388 478.405 -103.134Z" stroke="#6D33FA" stroke-opacity="0.03" stroke-width="5" stroke-miterlimit="10"/>
<path d="M1823.63 -1070.55C1567 -668.286 1441.22 66.9474 424.088 -127.369C-366.595 -278.462 -347.066 1550.23 129.962 2154.5C738.5 2925.27 2012.54 1625.92 2604.58 2007.41C3083.34 2315.98 2574.12 -2247 1823.63 -1070.55Z" stroke="#6D33FA" stroke-opacity="0.03" stroke-width="5" stroke-miterlimit="10"/>
</g>
<defs>
<clipPath id="clip0_1_433">
<rect width="1440" height="741" fill="white"/>
</clipPath>
</defs>
</svg>
