<svg width="202" height="202" viewBox="0 0 202 202" fill="none" xmlns="http://www.w3.org/2000/svg">
<g filter="url(#filter0_d_1_7247)">
<circle cx="100.563" cy="70.563" r="40.468" transform="rotate(15 100.563 70.563)" fill="white"/>
</g>
<g clip-path="url(#clip0_1_7247)">
<path d="M81.0368 75.2615C80.4778 75.7932 79.8438 76.4142 79.3156 76.9028C79.0837 77.1305 78.9499 77.4402 78.943 77.7654C78.9362 78.0906 79.0568 78.4053 79.2789 78.6419L85.764 85.5233C85.8766 85.6431 86.012 85.7392 86.162 85.806C86.3122 85.8728 86.4742 85.9089 86.6384 85.9123C86.8027 85.9156 86.9661 85.8861 87.119 85.8254C87.272 85.7648 87.4113 85.6742 87.5291 85.5591C87.9798 85.1204 88.562 84.5499 89.1929 83.9409C93.6377 79.6666 96.567 81.1202 101.433 85.2918L108.153 91.0338C108.279 91.1415 108.425 91.2227 108.583 91.2726C108.741 91.3225 108.908 91.3401 109.073 91.3243C109.237 91.3086 109.398 91.2598 109.543 91.1809C109.689 91.1019 109.818 90.9944 109.922 90.8648L115.873 83.4576C116.075 83.203 116.171 82.8787 116.138 82.5547C116.105 82.2308 115.946 81.933 115.696 81.7257C114.276 80.5222 111.452 78.1259 108.918 75.9361C99.8132 68.0247 90.824 65.9696 81.0368 75.2615Z" fill="url(#paint0_linear_1_7247)"/>
<path d="M120.988 65.5391C121.547 65.0073 122.181 64.3863 122.709 63.8977C122.941 63.67 123.075 63.3603 123.082 63.0351C123.089 62.7099 122.968 62.3952 122.746 62.1587L116.261 55.2772C116.149 55.1488 116.013 55.0448 115.859 54.9717C115.706 54.8986 115.539 54.8579 115.37 54.8522C115.2 54.8465 115.031 54.876 114.873 54.9387C114.715 55.0014 114.571 55.096 114.451 55.2166C114 55.6553 113.418 56.2258 112.787 56.8348C108.342 61.1091 105.413 59.6555 100.547 55.4839L93.846 49.7663C93.72 49.6586 93.5738 49.5774 93.4159 49.5275C93.258 49.4776 93.0916 49.46 92.9267 49.4757C92.7617 49.4915 92.6016 49.5403 92.4557 49.6192C92.3098 49.6982 92.1811 49.8057 92.0773 49.9353L86.1266 57.3425C85.9237 57.5971 85.8285 57.9214 85.8616 58.2453C85.8946 58.5693 86.0532 58.8671 86.3033 59.0744C87.7234 60.278 90.5475 62.6743 93.0809 64.8641C102.211 72.7759 111.204 74.8189 120.988 65.5391Z" fill="url(#paint1_linear_1_7247)"/>
</g>
<defs>
<filter id="filter0_d_1_7247" x="0.0849609" y="0.0849609" width="200.956" height="200.956" filterUnits="userSpaceOnUse" color-interpolation-filters="sRGB">
<feFlood flood-opacity="0" result="BackgroundImageFix"/>
<feColorMatrix in="SourceAlpha" type="matrix" values="0 0 0 0 0 0 0 0 0 0 0 0 0 0 0 0 0 0 127 0" result="hardAlpha"/>
<feOffset dy="30"/>
<feGaussianBlur stdDeviation="30"/>
<feComposite in2="hardAlpha" operator="out"/>
<feColorMatrix type="matrix" values="0 0 0 0 0.344915 0 0 0 0 0.309028 0 0 0 0 0.432639 0 0 0 0.15 0"/>
<feBlend mode="normal" in2="BackgroundImageFix" result="effect1_dropShadow_1_7247"/>
<feBlend mode="normal" in="SourceGraphic" in2="effect1_dropShadow_1_7247" result="shape"/>
</filter>
<linearGradient id="paint0_linear_1_7247" x1="112.466" y1="95.3336" x2="92.5277" y2="75.5375" gradientUnits="userSpaceOnUse">
<stop offset="0.18" stop-color="#0052CC"/>
<stop offset="1" stop-color="#2684FF"/>
</linearGradient>
<linearGradient id="paint1_linear_1_7247" x1="-17410.5" y1="25692" x2="-16843.6" y2="26845.6" gradientUnits="userSpaceOnUse">
<stop offset="0.18" stop-color="#0052CC"/>
<stop offset="1" stop-color="#2684FF"/>
</linearGradient>
<clipPath id="clip0_1_7247">
<rect width="39.607" height="37.885" fill="white" transform="translate(86.5854 46.8307) rotate(15)"/>
</clipPath>
</defs>
</svg>
