<svg width="120" height="39" viewBox="0 0 120 39" fill="none" xmlns="http://www.w3.org/2000/svg">
<path fill-rule="evenodd" clip-rule="evenodd" d="M7.98858 3.89777C6.66797 4.82118 5.47378 5.91295 4.43712 7.14195C8.6734 6.74866 14.0554 7.39086 20.3039 10.5152C26.9765 13.8514 32.3495 13.9642 36.0889 13.2429C35.7496 12.2156 35.3224 11.2283 34.8164 10.2897C30.5358 10.7411 25.0482 10.1435 18.6527 6.94587C14.5915 4.91529 11.0117 4.07882 7.98858 3.89777ZM32.3159 6.73049C28.9355 2.95358 24.023 0.57666 18.5552 0.57666C16.9495 0.57666 15.3916 0.781682 13.9063 1.16695C15.9179 1.71582 18.0548 2.5188 20.3039 3.64337C24.9863 5.98453 29.0288 6.73835 32.3159 6.73049ZM36.8884 16.8488C32.3708 17.7408 26.1326 17.5576 18.6527 13.8177C11.6598 10.3212 6.09415 10.3653 2.34042 11.1995C2.14667 11.2425 1.95748 11.2877 1.77285 11.3348C1.2814 12.4036 0.889104 13.5275 0.607629 14.6947C0.90826 14.6144 1.21891 14.538 1.53943 14.4668C6.09335 13.4548 12.5276 13.4987 20.3039 17.3869C27.2969 20.8834 32.8626 20.8393 36.6163 20.0051C36.7449 19.9766 36.8717 19.9471 36.9963 19.9166C37.0099 19.6256 37.0168 19.3327 37.0168 19.0382C37.0168 18.2975 36.9732 17.5668 36.8884 16.8488ZM36.3935 23.8127C31.9198 24.5948 25.8632 24.2946 18.6527 20.6894C11.6598 17.193 6.09415 17.237 2.34042 18.0712C1.50721 18.2563 0.757663 18.4818 0.0964546 18.7199C0.0946519 18.8257 0.09375 18.9319 0.09375 19.0382C0.09375 29.2343 8.35925 37.4998 18.5552 37.4998C27.1002 37.4998 34.2894 31.6944 36.3935 23.8127Z" fill="#6D33FA"/>
<path d="M47.0513 28.8071V10.0823H58.1432V12.8H49.769V18.0794H56.5828V20.8101H49.769V28.8071H47.0513ZM60.4864 28.8071V14.7635H62.9051V18.1704L62.567 17.7283C62.7404 17.2775 62.9657 16.8657 63.2431 16.4929C63.5206 16.1115 63.8413 15.7994 64.2054 15.5567C64.5608 15.2966 64.9553 15.0973 65.3887 14.9586C65.8308 14.8112 66.2816 14.7245 66.741 14.6985C67.2005 14.6638 67.6426 14.6855 68.0674 14.7635V17.3122C67.6079 17.1908 67.0965 17.1561 66.533 17.2081C65.9782 17.2601 65.4667 17.4379 64.9986 17.7413C64.5565 18.0273 64.2054 18.3741 63.9453 18.7815C63.6939 19.189 63.5119 19.6441 63.3992 20.1469C63.2865 20.641 63.2301 21.1655 63.2301 21.7203V28.8071H60.4864ZM72.0866 35.0487L74.8043 27.6498L74.8434 29.8344L68.7188 14.7635H71.5535L76.1307 26.4015H75.2985L79.6676 14.7635H82.4243L74.6743 35.0487H72.0866ZM91.054 29.1972C89.7104 29.1972 88.5834 28.8721 87.6732 28.222C86.7629 27.5631 86.0738 26.6746 85.6056 25.5563C85.1375 24.438 84.9035 23.1767 84.9035 21.7723C84.9035 20.3679 85.1332 19.1066 85.5926 17.9883C86.0608 16.87 86.7456 15.9902 87.6472 15.3487C88.5574 14.6985 89.6757 14.3734 91.002 14.3734C92.3197 14.3734 93.4553 14.6985 94.4089 15.3487C95.3712 15.9902 96.1124 16.87 96.6325 17.9883C97.1526 19.098 97.4127 20.3593 97.4127 21.7723C97.4127 23.1767 97.1526 24.4423 96.6325 25.5693C96.121 26.6876 95.3885 27.5718 94.4349 28.222C93.49 28.8721 92.3631 29.1972 91.054 29.1972ZM84.4484 28.8071V10.0823H87.1791V18.7035H86.867V28.8071H84.4484ZM90.677 26.7396C91.5438 26.7396 92.259 26.5185 92.8225 26.0764C93.3947 25.6343 93.8194 25.0405 94.0968 24.295C94.3829 23.5408 94.5259 22.6999 94.5259 21.7723C94.5259 20.8534 94.3829 20.0212 94.0968 19.2757C93.8194 18.5301 93.3903 17.9363 92.8095 17.4942C92.2287 17.0521 91.4875 16.831 90.5859 16.831C89.7364 16.831 89.0342 17.0391 88.4794 17.4552C87.9332 17.8713 87.5258 18.4521 87.2571 19.1976C86.997 19.9432 86.867 20.8014 86.867 21.7723C86.867 22.7432 86.997 23.6014 87.2571 24.347C87.5171 25.0925 87.9289 25.6776 88.4924 26.1024C89.0559 26.5272 89.7841 26.7396 90.677 26.7396ZM100.544 12.4619V9.82227H103.261V12.4619H100.544ZM100.544 28.8071V14.7635H103.261V28.8071H100.544ZM105.606 28.8071L110.859 21.7073L105.723 14.7635H108.948L112.446 19.5877L115.905 14.7635H119.129L113.993 21.7073L119.259 28.8071H116.022L112.446 23.8268L108.844 28.8071H105.606Z" fill="black"/>
</svg>
