<svg width="179" height="179" viewBox="0 0 179 179" fill="none" xmlns="http://www.w3.org/2000/svg">
<g filter="url(#filter0_d_1_7283)">
<circle cx="89.5" cy="59.5" r="29.5" fill="white"/>
</g>
<g clip-path="url(#clip0_1_7283)">
<path d="M84.8687 70.5116L85.2911 67.8326L84.3501 67.8108H79.8569L82.9795 48.0423C82.9892 47.9826 83.0207 47.927 83.0667 47.8875C83.1127 47.8479 83.1717 47.8262 83.2331 47.8262H90.8093C93.3244 47.8262 95.0602 48.3488 95.9664 49.3802C96.3912 49.8641 96.6618 50.3697 96.7926 50.9262C96.93 51.51 96.9324 52.2076 96.7983 53.0584L96.7886 53.1205V53.6657L97.2135 53.906C97.5713 54.0955 97.8556 54.3125 98.0736 54.5608C98.4371 54.9746 98.6721 55.5004 98.7715 56.1237C98.8741 56.7649 98.8402 57.5278 98.6721 58.3915C98.4783 59.385 98.1649 60.2504 97.7417 60.9584C97.3524 61.6108 96.8565 62.152 96.2676 62.5713C95.7055 62.9697 95.0375 63.2721 94.2823 63.4657C93.5506 63.656 92.7162 63.752 91.8011 63.752H91.2115C90.7899 63.752 90.3804 63.9036 90.0589 64.1754C89.7366 64.4528 89.5234 64.8318 89.458 65.2463L89.4136 65.4875L88.6673 70.2092L88.6333 70.3826C88.6245 70.4375 88.6091 70.4649 88.5865 70.4834C88.5663 70.5004 88.5372 70.5116 88.509 70.5116H84.8687Z" fill="#253B80"/>
<path d="M97.6155 53.1831C97.5928 53.3275 97.567 53.475 97.5379 53.6267C96.5388 58.7484 93.1206 60.5178 88.7551 60.5178H86.5323C85.9984 60.5178 85.5485 60.9049 85.4654 61.4307L84.3273 68.6371L84.005 70.6799C83.9509 71.025 84.2175 71.3363 84.5664 71.3363H88.5087C88.9756 71.3363 89.3721 70.9976 89.4456 70.538L89.4844 70.338L90.2267 65.6347L90.2743 65.3767C90.347 64.9154 90.7444 64.5767 91.2113 64.5767H91.8009C95.6205 64.5767 98.6105 63.0283 99.4845 58.5476C99.8495 56.6759 99.6605 55.113 98.6945 54.0138C98.4021 53.6823 98.0395 53.4073 97.6155 53.1831Z" fill="#179BD7"/>
<path d="M96.5708 52.767C96.4181 52.7226 96.2606 52.6823 96.0991 52.646C95.9367 52.6105 95.7704 52.5791 95.5991 52.5517C94.9998 52.4549 94.3432 52.4089 93.6397 52.4089H87.7015C87.5553 52.4089 87.4164 52.442 87.292 52.5017C87.0182 52.6331 86.8147 52.892 86.7654 53.2089L85.5022 61.1976L85.4658 61.4307C85.549 60.9049 85.9989 60.5178 86.5328 60.5178H88.7556C93.1211 60.5178 96.5393 58.7476 97.5384 53.6267C97.5683 53.4751 97.5933 53.3275 97.6159 53.1831C97.3631 53.0493 97.0893 52.9347 96.7945 52.8372C96.7218 52.813 96.6467 52.7896 96.5708 52.767Z" fill="#222D65"/>
<path d="M86.7651 53.2089C86.8144 52.8919 87.018 52.6331 87.2918 52.5024C87.417 52.4427 87.5551 52.4097 87.7013 52.4097H93.6394C94.3429 52.4097 94.9996 52.4556 95.5989 52.5524C95.7701 52.5798 95.9365 52.6113 96.0988 52.6468C96.2604 52.6831 96.4179 52.7234 96.5705 52.7677C96.6465 52.7903 96.7216 52.8137 96.7951 52.8371C97.0899 52.9347 97.3637 53.05 97.6165 53.1831C97.9137 51.2903 97.6141 50.0016 96.5891 48.8347C95.4592 47.55 93.4197 47 90.8101 47H83.2339C82.7008 47 82.2461 47.3871 82.1637 47.9137L79.0081 67.8855C78.9459 68.2806 79.2512 68.6371 79.6502 68.6371H84.3275L85.5019 61.1976L86.7651 53.2089Z" fill="#253B80"/>
</g>
<defs>
<filter id="filter0_d_1_7283" x="0" y="0" width="179" height="179" filterUnits="userSpaceOnUse" color-interpolation-filters="sRGB">
<feFlood flood-opacity="0" result="BackgroundImageFix"/>
<feColorMatrix in="SourceAlpha" type="matrix" values="0 0 0 0 0 0 0 0 0 0 0 0 0 0 0 0 0 0 127 0" result="hardAlpha"/>
<feOffset dy="30"/>
<feGaussianBlur stdDeviation="30"/>
<feComposite in2="hardAlpha" operator="out"/>
<feColorMatrix type="matrix" values="0 0 0 0 0.344915 0 0 0 0 0.309028 0 0 0 0 0.432639 0 0 0 0.15 0"/>
<feBlend mode="normal" in2="BackgroundImageFix" result="effect1_dropShadow_1_7283"/>
<feBlend mode="normal" in="SourceGraphic" in2="effect1_dropShadow_1_7283" result="shape"/>
</filter>
<clipPath id="clip0_1_7283">
<rect width="21" height="25" fill="white" transform="translate(79 47)"/>
</clipPath>
</defs>
</svg>
