<svg width="1440" height="779" viewBox="0 0 1440 779" fill="none" xmlns="http://www.w3.org/2000/svg">
<g clip-path="url(#clip0_1_242)">
<rect width="1440" height="779" fill="#F5F1FF"/>
<path d="M-214.729 482.272C-4.05118 602.884 109.532 1018.06 24.9194 1230.32C-68.562 1464.71 -653.1 1429.11 -720.172 1371.95C-787.245 1314.8 -238.904 1131.91 -313.729 916.241C-396.831 676.855 -814.114 676.526 -802.749 574.308C-791.581 473.731 -458.254 342.871 -214.729 482.272Z" stroke="#6D33FA" stroke-opacity="0.05" stroke-width="5" stroke-miterlimit="10"/>
<path d="M-148.775 452.777C98.1659 557.886 205.311 1060.44 96.4579 1297.2C-26.9138 1565.36 -661.969 1465.96 -756.239 1423.53C-837.502 1387 -309.986 1141.04 -373.051 880.44C-441.503 597.302 -817.859 551.317 -789.743 485.624C-759.524 415.201 -438.547 329.734 -148.775 452.777Z" stroke="#6D33FA" stroke-opacity="0.05" stroke-width="5" stroke-miterlimit="10"/>
<path d="M-82.8215 423.349C199.988 512.626 300.892 1102.75 167.995 1364.01C14.47 1666.2 -665.783 1501.97 -792.308 1475.16C-884.278 1455.45 -381.528 1150.51 -432.309 844.508C-486.506 518.144 -830.081 422.429 -776.738 397.4C-736.928 353.057 -419.893 316.86 -82.8215 423.349Z" stroke="#6D33FA" stroke-opacity="0.05" stroke-width="5" stroke-miterlimit="10"/>
<path d="M-16.864 393.656C301.616 467.758 396.28 1144.79 239.339 1430.69C55.3985 1766.25 -678.591 1585.4 -828.569 1526.6C-922.51 1489.75 -453.527 1159.84 -491.76 808.64C-532.03 439.05 -838.226 295.313 -763.927 308.912C-709.598 292.685 -401.169 304.379 -16.864 393.656Z" stroke="#6D33FA" stroke-opacity="0.05" stroke-width="5" stroke-miterlimit="10"/>
<path d="M49.0972 364.356C403.118 423.48 491.541 1187.1 311.081 1497.76C96.659 1866.96 -674.316 1625.07 -864.432 1578.37C-971.117 1552.09 -525.324 1169.62 -550.878 773.033C-577.156 360.217 -853.067 185.013 -750.717 220.685C-685.155 243.48 -382.572 292.225 49.0972 364.356Z" stroke="#6D33FA" stroke-opacity="0.05" stroke-width="5" stroke-miterlimit="10"/>
<path d="M114.979 334.859C504.605 379.333 586.722 1229.27 382.613 1564.57C137.512 1967.33 -671.236 1594.39 -900.571 1630.26C-1019.41 1648.72 -597.595 1179.48 -610.208 737.427C-623.346 281.516 -863.126 54.809 -737.718 132.59C-659.675 180.677 -364.055 280.268 114.979 334.859Z" stroke="#6D33FA" stroke-opacity="0.05" stroke-width="5" stroke-miterlimit="10"/>
<path d="M180.931 305.43C606.098 335.254 681.842 1271.12 454.215 1631.45C178.304 2067.65 -674.065 1621.46 -936.575 1681.57C-1065 1711 -669.795 1188.87 -669.401 701.362C-669.007 202.094 -871.079 -75.1309 -724.649 43.9051C-632.81 118.598 -345.534 268.444 180.931 305.43Z" stroke="#6D33FA" stroke-opacity="0.05" stroke-width="5" stroke-miterlimit="10"/>
<path d="M246.9 275.933C707.606 291.305 776.781 1313.36 525.768 1698.32C219.243 2167.96 -677.6 1647.54 -972.628 1733.2C-1110.98 1773.34 -742.176 1198.33 -728.709 665.56C-714.979 123.197 -878.489 -204.021 -711.629 -44.4523C-605.469 56.9779 -326.864 256.817 246.9 275.933Z" stroke="#6D33FA" stroke-opacity="0.05" stroke-width="5" stroke-miterlimit="10"/>
<path d="M312.85 246.436C809.096 247.422 872.03 1355.4 597.301 1765.2C260.033 2268.27 -681.744 1673.23 -1008.7 1784.9C-1157.3 1835.69 -814.641 1207.99 -787.97 629.822C-760.97 44.2328 -885.787 -332.321 -698.627 -132.81C-577.883 -4.24889 -308.41 245.254 312.85 246.436Z" stroke="#6D33FA" stroke-opacity="0.05" stroke-width="5" stroke-miterlimit="10"/>
<path d="M378.807 217.007C910.922 203.868 967.089 1397.38 668.842 1832.01C300.961 2368.46 -686.408 1698.19 -1044.76 1836.41C-1203.87 1897.77 -887.1 1217.45 -847.225 593.954C-807.02 -34.8608 -893.21 -460.487 -685.554 -221.298C-550.226 -65.2767 -289.818 233.824 378.807 217.007Z" stroke="#6D33FA" stroke-opacity="0.05" stroke-width="5" stroke-miterlimit="10"/>
<path d="M444.763 187.51C1012.22 159.853 1062.28 1439.36 740.382 1898.88C341.493 2468.71 -691.729 1723.09 -1080.83 1888.04C-1250.65 1959.91 -959.691 1226.97 -906.545 558.151C-853.137 -113.956 -900.37 -588.326 -672.546 -309.656C-522.503 -126.175 -271.161 222.459 444.763 187.51Z" stroke="#6D33FA" stroke-opacity="0.05" stroke-width="5" stroke-miterlimit="10"/>
<path d="M510.722 158.013C1113.79 116.101 1157.08 1481.34 811.926 1965.76C382.161 2568.89 -696.784 1747.79 -1116.89 1939.48C-1297.48 2021.99 -1032.21 1236.56 -965.797 522.15C-899.25 -193.183 -907.659 -716.232 -659.536 -398.211C-494.843 -187.008 -252.501 211.093 510.722 158.013Z" stroke="#6D33FA" stroke-opacity="0.05" stroke-width="5" stroke-miterlimit="10"/>
<path d="M576.669 128.583C1215.4 72.415 1252.06 1523.58 883.456 2032.57C422.816 2669.07 -702.377 1772.42 -1153.03 1991.25C-1344.59 2084.27 -1104.88 1245.96 -1025.13 486.479C-945.376 -273 -914.96 -843.742 -646.537 -486.634C-467.129 -247.773 -233.853 199.86 576.669 128.583Z" stroke="#6D33FA" stroke-opacity="0.05" stroke-width="5" stroke-miterlimit="10"/>
<path d="M642.624 99.086C1317.03 28.7286 1347.05 1565.23 955.061 2099.44C463.479 2769.51 -708.224 1797.25 -1189.03 2042.88C-1391.7 2146.48 -1177.47 1255.42 -1084.38 450.676C-991.559 -351.241 -922.318 -971.253 -633.465 -574.86C-439.408 -308.474 -215.197 188.56 642.624 99.086Z" stroke="#6D33FA" stroke-opacity="0.05" stroke-width="5" stroke-miterlimit="10"/>
<path d="M708.592 69.5914C1418.67 -14.9557 1441 1606.42 1026.42 2166.32C502.644 2868.45 -714.453 1821.43 -1225.28 2094.45C-1439.05 2208.69 -1250.31 1264.88 -1143.82 414.875C-1037.93 -430.333 -929.861 -1098.83 -620.643 -663.281C-411.674 -369.173 -196.397 177.394 708.592 69.5914Z" stroke="#6D33FA" stroke-opacity="0.05" stroke-width="5" stroke-miterlimit="10"/>
<path d="M774.54 40.1595C1520.29 -58.5773 1536.06 1648.39 1098.14 2233.06C543.629 2968.83 -720.308 1845.47 -1261.16 2145.95C-1486.16 2270.77 -1322.78 1274.21 -1202.89 378.808C-1083.98 -509.758 -937.029 -1226.54 -607.447 -751.969C-383.959 -429.875 -177.682 166.159 774.54 40.1595Z" stroke="#6D33FA" stroke-opacity="0.05" stroke-width="5" stroke-miterlimit="10"/>
<path d="M840.495 10.6622C1622.24 -102.199 1631.18 1690.44 1169.68 2300C584.423 3068.61 -726.484 1870.3 -1297.23 2197.65C-1533.72 2333.18 -1397.01 1283.6 -1262.15 343.201C-1131.75 -588.853 -944.389 -1353.78 -594.441 -840.064C-356.238 -490.511 -158.895 154.99 840.495 10.6622Z" stroke="#6D33FA" stroke-opacity="0.05" stroke-width="5" stroke-miterlimit="10"/>
<path d="M906.447 -18.8302C1723.87 -144.37 1726.3 1732.48 1241.22 2366.88C625.214 3169.26 -732.795 1894.75 -1333.36 2249.29C-1580.83 2395.39 -1469.35 1293.06 -1321.47 307.402C-1177.67 -667.944 -951.75 -1481.16 -581.372 -928.483C-328.519 -551.142 -139.848 145.665 906.447 -18.8302Z" stroke="#6D33FA" stroke-opacity="0.05" stroke-width="5" stroke-miterlimit="10"/>
<path d="M972.415 -48.2632C1825.51 -188.321 1821.3 1774.46 1312.77 2433.76C666.088 3269.5 -739.155 1919.12 -1369.41 2300.92C-1628.18 2457.67 -1541.73 1302.39 -1380.71 271.597C-1223.58 -747.041 -959.161 -1608.61 -568.352 -1016.84C-300.587 -611.451 -121.114 134.101 972.415 -48.2632Z" stroke="#6D33FA" stroke-opacity="0.05" stroke-width="5" stroke-miterlimit="10"/>
<path d="M1038.37 -77.7587C1927.13 -232.269 1916.49 1816.5 1384.31 2500.57C706.881 3369.56 -745.661 1943.55 -1405.48 2352.49C-1675.61 2519.95 -1614.45 1312.05 -1439.97 235.992C-1269.17 -825.938 -965.47 -1736.51 -555.347 -1105.07C-272.276 -672.873 -102.393 122.474 1038.37 -77.7587Z" stroke="#6D33FA" stroke-opacity="0.05" stroke-width="5" stroke-miterlimit="10"/>
<path d="M1104.32 -107.257C2028.75 -276.416 2011.8 1858.61 1455.84 2567.44C747.668 3470 -752.173 1967.99 -1441.56 2403.86C-1723.12 2582.02 -1686.53 1321.24 -1499.3 199.728C-1315.43 -905.297 -973.427 -1863.69 -542.349 -1193.69C-244.956 -733.181 -83.8104 111.173 1104.32 -107.257Z" stroke="#6D33FA" stroke-opacity="0.05" stroke-width="5" stroke-miterlimit="10"/>
<path d="M-529.271 -1282.05C-217.622 -793.553 -64.8859 99.2831 1170.28 -136.687C2130.45 -320.168 2106.73 1900.52 1527.45 2634.32C788.468 3570.31 -758.671 1992.43 -1477.62 2455.7C-2059 2830.41 -1440.63 -2710.68 -529.271 -1282.05Z" stroke="#6D33FA" stroke-opacity="0.05" stroke-width="5" stroke-miterlimit="10"/>
</g>
<defs>
<clipPath id="clip0_1_242">
<rect width="1440" height="779" fill="white"/>
</clipPath>
</defs>
</svg>
