<svg width="176" height="176" viewBox="0 0 176 176" fill="none" xmlns="http://www.w3.org/2000/svg">
<g filter="url(#filter0_d_1_7292)">
<circle cx="87.6805" cy="57.6805" r="27.5" transform="rotate(-15 87.6805 57.6805)" fill="white"/>
</g>
<g clip-path="url(#clip0_1_7292)">
<path fill-rule="evenodd" clip-rule="evenodd" d="M93.9015 56.2058C90.8893 57.0129 89.0993 60.1007 89.9037 63.1027C90.708 66.1045 93.8021 67.8835 96.8143 67.0764C99.8266 66.2692 101.616 63.1815 100.812 60.1798C100.008 57.1778 96.9138 55.3987 93.9015 56.2058ZM79.7312 60.0033C76.7189 60.8105 74.9288 63.8977 75.7332 66.8996C76.5375 69.9014 79.6315 71.6805 82.6438 70.8734C85.6562 70.0662 87.4462 66.9784 86.6419 63.9767C85.8375 60.9747 82.7435 59.1962 79.7312 60.0033ZM90.4499 49.8488C91.2543 52.8507 89.4646 55.9387 86.4523 56.7458C83.4399 57.553 80.346 55.7736 79.5416 52.7717C78.7374 49.7703 80.5271 46.6823 83.5395 45.8752C86.5518 45.068 89.6457 46.8474 90.4499 49.8488Z" fill="#F06A6A"/>
</g>
<defs>
<filter id="filter0_d_1_7292" x="0.173828" y="0.173706" width="175.014" height="175.014" filterUnits="userSpaceOnUse" color-interpolation-filters="sRGB">
<feFlood flood-opacity="0" result="BackgroundImageFix"/>
<feColorMatrix in="SourceAlpha" type="matrix" values="0 0 0 0 0 0 0 0 0 0 0 0 0 0 0 0 0 0 127 0" result="hardAlpha"/>
<feOffset dy="30"/>
<feGaussianBlur stdDeviation="30"/>
<feComposite in2="hardAlpha" operator="out"/>
<feColorMatrix type="matrix" values="0 0 0 0 0.344915 0 0 0 0 0.309028 0 0 0 0 0.432639 0 0 0 0.15 0"/>
<feBlend mode="normal" in2="BackgroundImageFix" result="effect1_dropShadow_1_7292"/>
<feBlend mode="normal" in="SourceGraphic" in2="effect1_dropShadow_1_7292" result="shape"/>
</filter>
<clipPath id="clip0_1_7292">
<rect width="26" height="24" fill="white" transform="translate(71 49.2351) rotate(-15)"/>
</clipPath>
</defs>
</svg>
